<?xml version="1.0" encoding="UTF-8"?>
<!-- Svg Vector Icons : http://www.onlinewebfonts.com/icon -->
<svg id="svg8" enable-background="new 0 0 1000 1000" version="1.1" viewBox="0 0 1e3 1e3" xml:space="preserve" xmlns="http://www.w3.org/2000/svg" xmlns:cc="http://creativecommons.org/ns#" xmlns:dc="http://purl.org/dc/elements/1.1/" xmlns:rdf="http://www.w3.org/1999/02/22-rdf-syntax-ns#">
<metadata id="metadata2"> Svg Vector Icons : http://www.onlinewebfonts.com/icon <rdf:RDF><cc:Work rdf:about=""><dc:format>image/svg+xml</dc:format><dc:type rdf:resource="http://purl.org/dc/dcmitype/StillImage"/></cc:Work></rdf:RDF></metadata>
<path id="path4" d="m215.6 564.3c-1.9-9.5-3.8-18.1-5.2-26.7-5.5-34.2-2.6-68 4.7-101.8 9.7-44.9 29-85 58.3-120 40.9-49 92.1-81.9 154.9-96.1 25.8-5.8 51.6-9 78-8.9 96.4 0.3 192.7-0.4 289.1 0.4 34.5 0.3 62.1 15.5 79.4 46.5 7.2 12.9 10 27.3 10.8 41.9 0.9 16.2 1 32.4 0 48.6-2 34.7-16.7 62.3-48.3 78.8-12.7 6.7-26.8 9.1-41.1 10-6.6 0.5-13.2 0.1-19.9 0.1 1.8 10.4 3.9 20.4 5.2 30.5 4.3 32 1 63.4-5.8 94.9-9.7 44.9-29.1 84.9-58.4 120-40.9 48.9-91.8 82.1-154.6 95.7-17.2 3.7-34.9 5.4-52.1 9.2-13.6 3-27.2 2.9-40.9 2.9-88.1 0-176.2 0.3-264.3-0.2-23-0.1-44.5-6.7-61.8-22.9-11.9-11.2-21.2-24.1-25.1-40.6-3.2-13.3-5.1-26.5-4.6-40.2 0.5-14-0.4-28.2 1.2-42 2.1-17.9 7.6-34.8 20.2-48.6 11.3-12.4 24.1-22.5 40.8-26.6 13-3.3 25.6-6.7 39.5-4.9zm528.4-65.5c-0.1-137.2-111.5-248.4-248.7-248.2-137.2 0.1-248.3 111.5-248.2 248.6 0.1 137.2 111.5 248.4 248.7 248.2 137.2-0.1 248.3-111.4 248.2-248.6zm-100.8-248.3c27 18.4 52.5 37.8 72.9 63.3 20.3 25.4 37.9 52.4 48.8 83.5h30.9c28.5-0.1 50.2-21.7 50.3-50.2 0.1-14.9 0-29.7 0-44.6 0-30.8-21.2-52-52-52h-146.2-4.7zm-416.3 353.2h-22.8c-28.5 0.1-50.2 21.8-50.3 50.2-0.1 15 0 30.1 0 45.1 0 30.1 21.4 51.4 51.6 51.4h142.8 4.7c-58.4-34.9-100.2-83.8-126-146.7zm704.6-282.2c0-27.6-0.1-55.2 0-82.8 0.1-14.3 10.6-26.1 24.9-28.5 13.6-2.3 27.4 6.1 31.9 19.5 1.1 3.2 1.6 6.8 1.6 10.2 0.1 54.4 0.1 108.8 0 163.1 0 16.9-12.8 29.9-29.1 30-16.5 0.1-29.3-13.1-29.4-30.2 0-27.1 0.1-54.2 0.1-81.3zm-921.5 356c0-27.6-0.1-55.2 0-82.8 0.1-14.3 10.6-26.1 24.9-28.5 13.6-2.3 27.4 6.1 31.9 19.5 1.1 3.2 1.6 6.8 1.6 10.2 0.1 54.4 0.1 108.8 0 163.1 0 16.9-12.8 29.9-29.1 30-16.5 0.1-29.3-13.1-29.4-30.2 0.1-27 0.1-54.1 0.1-81.3zm451.3-180.7c0-19 15.4-34.3 34.3-34.3s34.3 15.4 34.3 34.3c0 19-15.4 34.3-34.3 34.3s-34.3-15.3-34.3-34.3zm154.4-133.6-67.1 68.7c-11.9-9.9-26.6-16.4-42.7-18.5v-101.4c-116.3 0-143.9 64.8-143.9 64.8l67.6 66c-10.6 12.5-17.6 28.1-19.4 45.2h-99.5c0 116.3 64.8 143.9 64.8 143.9l66.2-67.9c12.6 10 28.1 16.4 45 18v99.7c116.3 0 143.9-64.8 143.9-64.8l-69.1-67.4c9.3-12 15.6-26.5 17.3-42.4h101.5c0.2-116.3-64.6-143.9-64.6-143.9zm-120.1 185.1c-28.4 0-51.5-23.1-51.5-51.4 0-28.4 23.1-51.4 51.5-51.4s51.4 23.1 51.4 51.4-23 51.4-51.4 51.4zm84.7-24h12v37.2h-12v-37.2zm22.1-4.8h13.6v46.8h-13.6v-46.8zm26.1-6.1h17.6v58.9h-17.6v-58.9zm29.7-1.8h18v62.7h-18v-62.7zm-228.5 70.5h37.2v12.1h-37.2v-12.1zm-4.8 22.1h46.7v13.5h-46.7v-13.5zm-6 26.1h58.9v17.6h-58.9v-17.6zm-1.9 29.7h62.7v18.1h-62.7v-18.1zm-20.2-228h12v37.2h-12v-37.2zm-23.6-4.8h13.6v46.8h-13.6v-46.8zm-30.1-6h17.6v58.9h-17.6v-58.9zm-30.2-1.9h18v62.7h-18v-62.7zm212.9-16.6h37.2v12h-37.2v-12zm-4.8-23.7h46.7v13.6h-46.7v-13.6zm-6.1-30.1h58.9v17.6h-58.9v-17.6zm-1.8-30.1h62.7v18.1h-62.7v-18.1z" fill="#fff"/>
</svg>
